<svg width="10" height="6" viewBox="0 0 10 6" fill="none" xmlns="http://www.w3.org/2000/svg">
    <path d="M4.99935 3.92503L1.91183 0.837511C1.68402 0.609705 1.31468 0.609705 1.08687 0.837511C0.859064 1.06532 0.859064 1.43466 1.08687 1.66247L4.58687 5.16247C4.81468 5.39027 5.18402 5.39027 5.41183 5.16247L8.91183 1.66247C9.13963 1.43466 9.13963 1.06532 8.91183 0.837511C8.68402 0.609705 8.31468 0.609705 8.08687 0.837511L4.99935 3.92503Z" fill="#646464"/>
    <mask id="mask0_1690_2682" style="mask-type:luminance" maskUnits="userSpaceOnUse" x="0" y="0" width="10" height="6">
        <path d="M4.99935 3.92503L1.91183 0.837511C1.68402 0.609705 1.31468 0.609705 1.08687 0.837511C0.859064 1.06532 0.859064 1.43466 1.08687 1.66247L4.58687 5.16247C4.81468 5.39027 5.18402 5.39027 5.41183 5.16247L8.91183 1.66247C9.13963 1.43466 9.13963 1.06532 8.91183 0.837511C8.68402 0.609705 8.31468 0.609705 8.08687 0.837511L4.99935 3.92503Z" fill="white"/>
    </mask>
    <g mask="url(#mask0_1690_2682)">
    </g>
</svg>
